HIERARCHY
ROOT Hips
{
	OFFSET -3.958830 18.904000 13.208200
	CHANNELS 6 Xposition Yposition Zposition Zrotation Yrotation Xrotation 
	JOINT LHipJoint
	{
		OFFSET 0.000000 0.000000 0.000000
		CHANNELS 3 Zrotation Yrotation Xrotation
		JOINT LeftUpLeg
		{
			OFFSET 1.800000 -1.400000 0.085000
			CHANNELS 3 Zrotation Yrotation Xrotation
			JOINT LeftLeg
			{
				OFFSET 2.215000 -6.000000 0.000000
				CHANNELS 3 Zrotation Yrotation Xrotation
				JOINT LeftFoot
				{
					OFFSET 2.500000 -6.900000 0.000000
					CHANNELS 3 Zrotation Yrotation Xrotation
					JOINT LeftToeBase
					{
						OFFSET 0.200000 -0.500000 1.950000
						CHANNELS 3 Zrotation Yrotation Xrotation
						End Site
						{
							OFFSET 0.000000 0.000000 0.000000
						}
					}
				}
			}
		}
	}
	JOINT RHipJoint
	{
		OFFSET 0.000000 0.000000 0.000000
		CHANNELS 3 Zrotation Yrotation Xrotation
		JOINT RightUpLeg
		{
			OFFSET -1.800000 -1.400000 0.085000
			CHANNELS 3 Zrotation Yrotation Xrotation
			JOINT RightLeg
			{
				OFFSET -2.215000 -6.000000 0.000000
				CHANNELS 3 Zrotation Yrotation Xrotation
				JOINT RightFoot
				{
					OFFSET -2.500000 -6.900000 0.000000
					CHANNELS 3 Zrotation Yrotation Xrotation
					JOINT RightToeBase
					{
						OFFSET -0.200000 -0.500000 1.950000
						CHANNELS 3 Zrotation Yrotation Xrotation
						End Site
						{
							OFFSET 0.000000 0.000000 0.000000
						}
					}
				}
			}
		}
	}
	JOINT LowerBack
	{
		OFFSET 0.000000 0.000000 0.000000
		CHANNELS 3 Zrotation Yrotation Xrotation
		JOINT Spine
		{
			OFFSET -0.087000 1.940000 -0.288900
			CHANNELS 3 Zrotation Yrotation Xrotation
			JOINT Spine1
			{
				OFFSET 0.000000 1.950000 0.060000
				CHANNELS 3 Zrotation Yrotation Xrotation
				JOINT Neck
				{
					OFFSET 0.000000 0.000000 0.000000
					CHANNELS 3 Zrotation Yrotation Xrotation
					JOINT Neck1
					{
						OFFSET 0.000000 1.600000 0.340000
						CHANNELS 3 Zrotation Yrotation Xrotation
						JOINT Head
						{
							OFFSET 0.000000 1.667000 -0.240000
							CHANNELS 3 Zrotation Yrotation Xrotation
							End Site
							{
								OFFSET 0.000000 0.000000 0.000000
							}
						}
					}
				}
				JOINT LeftShoulder
				{
					OFFSET 0.000000 0.000000 0.000000
					CHANNELS 3 Zrotation Yrotation Xrotation
					JOINT LeftArm
					{
						OFFSET 2.700000 1.550000 -0.730000
						CHANNELS 3 Zrotation Yrotation Xrotation
						JOINT LeftForeArm
						{
							OFFSET 5.450000 0.000000 0.000000
							CHANNELS 3 Zrotation Yrotation Xrotation
							JOINT LeftHand
							{
								OFFSET 3.450000 0.000000 0.000000
								CHANNELS 3 Zrotation Yrotation Xrotation
								JOINT LeftHandIndex1
								{
									OFFSET 0.750000 0.000000 0.000000
									CHANNELS 3 Zrotation Yrotation Xrotation
									End Site
									{
										OFFSET 0.000000 0.000000 0.000000
									}
								}
							}
						}
					}
				}
				JOINT RightShoulder
				{
					OFFSET 0.000000 0.000000 0.000000
					CHANNELS 3 Zrotation Yrotation Xrotation
					JOINT RightArm
					{
						OFFSET -2.700000 1.550000 -0.730000
						CHANNELS 3 Zrotation Yrotation Xrotation
						JOINT RightForeArm
						{
							OFFSET -5.450000 0.000000 0.000000
							CHANNELS 3 Zrotation Yrotation Xrotation
							JOINT RightHand
							{
								OFFSET -3.450000 0.000000 0.000000
								CHANNELS 3 Zrotation Yrotation Xrotation
								JOINT RightHandIndex1
								{
									OFFSET -0.750000 0.000000 0.000000
									CHANNELS 3 Zrotation Yrotation Xrotation
									End Site
									{
										OFFSET 0.000000 0.000000 0.000000
									}
								}
							}
						}
					}
				}
			}
		}
	}
}
MOTION
Frames: 8
Frame Time: 0.016667
2.867820 16.664910 -3.821740 -6.710044 -3.469128 10.574343 -15.223646 13.292695 3.908652 0.448409 -5.802094 -34.129474 24.689517 -1.222796 17.654373 -0.199734 3.106188 3.319870 0.396820 0.363040 0.274910 18.184518 -10.466297 2.919835 -10.785724 4.141377 -33.455108 -8.048523 -1.112612 21.472962 -0.006975 -2.072636 3.501073 0.220420 -0.149400 0.018190 -3.352667 -2.404602 -8.152613 4.628147 -0.091796 32.134893 0.032457 2.229590 -0.838359 -1.138516 -9.691096 -10.298300 -19.069167 2.693368 29.100543 -0.302100 -1.552590 -17.933540 -23.269180 -10.195378 4.753945 -18.316042 5.690234 -4.039125 -3.798598 -27.307087 0.767141 -3.367233 3.132936 0.293440 -0.187120 0.171230 0.077270 25.951535 20.434006 6.078676 29.579757 11.678100 -7.112287 13.348238 36.286572 3.190815 2.333009 -1.388775 0.007960 0.152570 -0.125320 -0.079580 
2.779210 16.591280 -3.800010 -7.174941 -3.507931 10.792324 -15.261018 13.302040 3.987963 0.287541 -5.896239 -34.551528 27.626953 -1.666700 17.440620 -0.133613 3.418644 3.212726 0.392620 0.361780 0.273940 18.147455 -10.485532 2.798891 -10.595056 3.962657 -31.845452 -6.689056 -1.387887 20.913350 0.006066 -2.041249 3.524236 0.221310 -0.141480 0.020000 -3.249057 -2.443724 -8.146912 3.372248 0.612870 32.469011 0.449661 2.738046 -1.668056 -1.203175 -9.189778 -9.809980 -17.830836 2.396710 28.521799 -0.174250 -1.258220 -18.279760 -24.507986 -9.069977 4.267023 -17.173319 6.512487 -3.757395 0.768809 -24.469218 -0.047944 -3.395497 3.106893 0.291390 -0.177690 0.168080 0.077280 27.305278 19.100312 5.989646 28.375702 9.591748 -7.618862 8.463047 34.740449 1.821940 2.318160 -1.370091 0.003110 0.155290 -0.123970 -0.082200 
2.703870 16.531980 -3.775550 -8.013546 -3.991877 10.832135 -15.272870 13.296459 4.030839 0.299927 -5.875533 -34.761450 30.728564 -2.164366 17.581393 -0.042804 3.820700 3.074332 0.383480 0.350740 0.270530 18.133549 -10.497599 2.745276 -10.290824 3.945034 -30.537349 -4.723117 -1.815381 20.558389 0.019125 -2.038093 3.536033 0.215450 -0.135720 0.018890 -3.208445 -2.402280 -8.158138 2.983168 1.107542 32.718367 0.406947 3.329213 -2.525678 -1.136544 -8.828758 -9.433750 -17.079799 2.294862 28.577878 0.068940 -1.076620 -18.106170 -25.695717 -7.918856 3.805123 -16.882690 7.071662 -3.536549 6.011097 -21.015460 -0.759427 -3.434105 3.071163 0.289460 -0.172290 0.163070 0.075580 28.310711 17.850454 5.955239 27.457075 7.602418 -8.041819 3.497289 33.123203 0.576804 2.315827 -1.356820 -0.001630 0.153340 -0.122130 -0.084320 
2.634200 16.492900 -3.746270 -9.148746 -4.952505 10.568531 -15.288070 13.377420 4.001953 0.803292 -5.537238 -34.553450 33.335591 -2.599163 18.141041 0.065591 4.235598 2.928528 0.365780 0.328600 0.257940 18.105404 -10.499156 2.734977 -9.563644 4.083241 -29.225229 -2.835725 -2.229496 20.638758 0.025236 -2.079610 3.534836 0.195540 -0.134710 0.015240 -3.131136 -2.465164 -8.164091 2.639753 1.781009 32.939042 0.883935 4.144208 -3.416936 -1.061541 -8.684073 -9.347888 -16.996474 2.645026 29.333443 0.624680 -0.801060 -17.379320 -26.419388 -6.777235 3.527502 -17.706265 7.995510 -3.529588 10.073731 -18.085001 -1.123295 -3.463967 3.048977 0.289180 -0.175100 0.159250 0.072530 28.949978 16.883866 6.106832 26.408279 5.599534 -8.269174 -1.802712 30.551502 -0.569077 2.341505 -1.343531 -0.001290 0.141000 -0.119070 -0.083290 
2.550460 16.457790 -3.699540 -10.280916 -5.440603 10.227089 -15.299822 13.435117 3.956706 1.505477 -5.218307 -34.156520 35.531632 -2.969094 18.347019 0.156501 4.576165 2.810863 0.351510 0.309160 0.253330 18.082496 -10.500150 2.742683 -9.056695 4.229979 -28.023048 -0.522490 -2.849927 21.246510 0.012949 -2.227920 3.490699 0.177470 -0.136180 0.014130 -3.072350 -2.492732 -8.173420 2.285251 2.255423 32.774907 1.149459 4.710810 -4.305672 -0.922672 -8.139133 -9.142298 -16.093088 2.932411 30.080357 1.221330 -0.322590 -16.832100 -26.793712 -5.572513 3.199400 -18.270479 9.059481 -3.649230 13.737869 -16.098188 -1.343258 -3.494802 3.036426 0.294040 -0.176650 0.159490 0.068280 29.076726 15.470714 6.053636 26.152403 3.643674 -8.294003 -5.502817 28.169260 -1.224471 2.374939 -1.332111 -0.002560 0.128300 -0.118370 -0.087190 
2.466210 16.430630 -3.631960 -11.468110 -5.318628 10.010854 -15.315551 13.427345 3.923792 2.029501 -5.052907 -33.431276 38.331248 -3.369823 17.585709 0.262012 4.905403 2.702196 0.326040 0.281080 0.244510 18.066115 -10.489803 2.759871 -8.648547 4.374818 -26.925249 2.047731 -3.668208 22.259269 -0.012670 -2.490588 3.404694 0.152390 -0.133010 0.015110 -3.027481 -2.455465 -8.209142 2.224697 2.590597 31.462611 1.504132 5.081118 -4.489867 -0.717540 -7.040113 -9.022269 -14.189561 3.163063 31.273767 1.706490 0.439410 -15.643850 -25.712802 -4.340165 3.020541 -19.602556 9.776328 -3.815575 15.897499 -14.548422 -1.350392 -3.535644 3.017165 0.291580 -0.167570 0.157040 0.060730 27.589169 13.595855 5.792345 27.133793 1.944878 -8.062479 -8.616083 25.489950 -1.630026 2.419636 -1.305704 -0.003780 0.110690 -0.114380 -0.091710 
2.368510 16.419810 -3.564210 -12.535143 -4.811481 9.837206 -15.339250 13.372190 3.901374 2.727271 -4.991274 -33.083711 40.494684 -3.751638 17.340421 0.355416 5.205313 2.606661 0.292260 0.241900 0.232190 18.049920 -10.473895 2.783511 -8.160862 4.474239 -25.839268 4.496012 -4.484608 22.915119 -0.041511 -2.765116 3.317141 0.122790 -0.122340 0.018230 -2.978181 -2.357422 -8.247261 1.947008 3.181135 29.933193 1.893882 5.590201 -4.583974 -0.450587 -5.469874 -8.971607 -11.288486 2.852633 32.071459 2.211850 0.995480 -14.359870 -24.223501 -3.395512 2.855377 -20.640877 10.174205 -4.096956 17.648184 -14.319518 -1.414339 -3.575223 3.003072 0.285720 -0.150700 0.148950 0.052550 25.585971 11.642872 5.652234 28.416423 -0.070549 -7.825223 -10.757492 23.117087 -1.775192 2.456888 -1.287325 -0.009120 0.093540 -0.106900 -0.096830 
2.259060 16.425630 -3.496590 -13.501659 -4.145842 9.495837 -15.394461 13.320343 3.902264 3.234794 -5.037191 -32.848127 42.988614 -4.206825 17.178146 0.466054 5.572085 2.497988 0.252290 0.195010 0.205420 18.013454 -10.402332 2.792306 -7.472629 4.518178 -24.515639 6.935700 -5.298109 23.322689 -0.068632 -3.056620 3.232984 0.094510 -0.095160 0.014880 -2.857893 -2.392187 -8.282708 1.191380 3.910513 28.308614 3.316956 6.063758 -4.422448 -0.459560 -4.348186 -9.052441 -9.257127 2.485303 32.525387 2.866280 1.040610 -12.634790 -22.351066 -2.554230 2.904113 -22.000392 10.711628 -4.342727 18.170930 -14.406706 -1.389646 -3.607796 2.991795 0.268260 -0.127140 0.124320 0.049160 23.872008 10.130565 5.644072 28.294254 -1.837190 -7.564118 -12.700419 21.002444 -1.825809 2.492829 -1.286011 -0.019800 0.085170 -0.093820 -0.094510 
